<svg width="59" height="20" viewBox="0 0 59 20" fill="none" xmlns="http://www.w3.org/2000/svg">
<path d="M4.9375 19.3182C4.12784 19.3182 3.43182 19.214 2.84943 19.0057C2.26705 18.8021 1.78172 18.5322 1.39347 18.196C1.00994 17.8646 0.704546 17.5095 0.477273 17.1307L1.8125 16.1932C1.96402 16.392 2.15578 16.6193 2.38778 16.875C2.61979 17.1354 2.93703 17.3603 3.33949 17.5497C3.74669 17.7438 4.27936 17.8409 4.9375 17.8409C5.81818 17.8409 6.54498 17.6278 7.1179 17.2017C7.69081 16.7756 7.97727 16.108 7.97727 15.1989V12.983H7.83523C7.71212 13.1818 7.53693 13.428 7.30966 13.7216C7.08712 14.0104 6.76515 14.2685 6.34375 14.4957C5.92708 14.7183 5.36364 14.8295 4.65341 14.8295C3.77273 14.8295 2.98201 14.6212 2.28125 14.2045C1.58523 13.7879 1.03362 13.1818 0.62642 12.3864C0.223958 11.5909 0.0227273 10.625 0.0227273 9.48864C0.0227273 8.37121 0.219224 7.3982 0.612216 6.5696C1.00521 5.73627 1.55208 5.09233 2.25284 4.63778C2.9536 4.1785 3.76326 3.94886 4.68182 3.94886C5.39205 3.94886 5.95549 4.06723 6.37216 4.30398C6.79356 4.53598 7.11553 4.80114 7.33807 5.09943C7.56534 5.39299 7.74053 5.63447 7.86364 5.82386H8.03409V4.09091H9.65341V15.3125C9.65341 16.25 9.44034 17.0123 9.0142 17.5994C8.5928 18.1913 8.02462 18.6245 7.30966 18.8991C6.59943 19.1785 5.80871 19.3182 4.9375 19.3182ZM4.88068 13.3239C5.55303 13.3239 6.12121 13.17 6.58523 12.8622C7.04924 12.5545 7.40199 12.1117 7.64347 11.5341C7.88494 10.9564 8.00568 10.2652 8.00568 9.46023C8.00568 8.67424 7.88731 7.98059 7.65057 7.37926C7.41383 6.77794 7.06345 6.30682 6.59943 5.96591C6.13542 5.625 5.5625 5.45455 4.88068 5.45455C4.17045 5.45455 3.5786 5.63447 3.10511 5.99432C2.63636 6.35417 2.28362 6.83712 2.04688 7.44318C1.81487 8.04924 1.69886 8.72159 1.69886 9.46023C1.69886 10.2178 1.81723 10.8878 2.05398 11.4702C2.29545 12.0478 2.65057 12.5024 3.11932 12.8338C3.5928 13.1605 4.17992 13.3239 4.88068 13.3239ZM12.7216 15V4.09091H14.3977V15H12.7216ZM13.5739 2.27273C13.2472 2.27273 12.9654 2.16146 12.7287 1.93892C12.4967 1.71638 12.3807 1.44886 12.3807 1.13636C12.3807 0.823864 12.4967 0.556345 12.7287 0.333806C12.9654 0.111269 13.2472 0 13.5739 0C13.9006 0 14.1799 0.111269 14.4119 0.333806C14.6487 0.556345 14.767 0.823864 14.767 1.13636C14.767 1.44886 14.6487 1.71638 14.4119 1.93892C14.1799 2.16146 13.9006 2.27273 13.5739 2.27273ZM22.212 4.09091V5.51136H16.5586V4.09091H22.212ZM18.2063 1.47727H19.8825V11.875C19.8825 12.3485 19.9511 12.7036 20.0884 12.9403C20.2305 13.1723 20.4104 13.3286 20.6282 13.4091C20.8507 13.4848 21.0851 13.5227 21.3313 13.5227C21.516 13.5227 21.6675 13.5133 21.7859 13.4943C21.9042 13.4706 21.9989 13.4517 22.07 13.4375L22.4109 14.9432C22.2972 14.9858 22.1386 15.0284 21.935 15.071C21.7314 15.1184 21.4734 15.142 21.1609 15.142C20.6874 15.142 20.2234 15.0402 19.7688 14.8366C19.319 14.633 18.945 14.3229 18.6467 13.9062C18.3531 13.4896 18.2063 12.964 18.2063 12.3295V1.47727ZM26.6438 8.4375V15H24.9677V0.454545H26.6438V5.79545H26.7859C27.0415 5.23201 27.4251 4.78456 27.9364 4.45312C28.4525 4.11695 29.1391 3.94886 29.9961 3.94886C30.7395 3.94886 31.3905 4.09801 31.9492 4.39631C32.5079 4.68987 32.9412 5.14205 33.2489 5.75284C33.5614 6.3589 33.7177 7.13068 33.7177 8.06818V15H32.0415V8.18182C32.0415 7.31534 31.8166 6.64536 31.3668 6.17188C30.9218 5.69366 30.3039 5.45455 29.5131 5.45455C28.9639 5.45455 28.4715 5.57055 28.0359 5.80256C27.605 6.03456 27.2641 6.37311 27.0131 6.81818C26.7669 7.26326 26.6438 7.80303 26.6438 8.4375ZM43.6591 10.5398V4.09091H45.3352V15H43.6591V13.1534H43.5455C43.2898 13.7074 42.892 14.1785 42.3523 14.5668C41.8125 14.9503 41.1307 15.142 40.3068 15.142C39.625 15.142 39.0189 14.9929 38.4886 14.6946C37.9583 14.3916 37.5417 13.937 37.2386 13.331C36.9356 12.7202 36.7841 11.9508 36.7841 11.0227V4.09091H38.4602V10.9091C38.4602 11.7045 38.6828 12.339 39.1278 12.8125C39.5777 13.286 40.1506 13.5227 40.8466 13.5227C41.2633 13.5227 41.687 13.4162 42.1179 13.2031C42.5535 12.9901 42.9181 12.6634 43.2116 12.223C43.5099 11.7827 43.6591 11.2216 43.6591 10.5398ZM48.6325 15V0.454545H50.3086V5.82386H50.4506C50.5737 5.63447 50.7442 5.39299 50.962 5.09943C51.1845 4.80114 51.5018 4.53598 51.9137 4.30398C52.3304 4.06723 52.8938 3.94886 53.604 3.94886C54.5226 3.94886 55.3323 4.1785 56.033 4.63778C56.7338 5.09706 57.2807 5.74811 57.6737 6.59091C58.0666 7.43371 58.2631 8.42803 58.2631 9.57386C58.2631 10.7292 58.0666 11.7306 57.6737 12.5781C57.2807 13.4209 56.7362 14.0743 56.0401 14.5384C55.3441 14.9976 54.5415 15.2273 53.6325 15.2273C52.9317 15.2273 52.3706 15.1113 51.9492 14.8793C51.5278 14.6425 51.2035 14.375 50.9762 14.0767C50.7489 13.7737 50.5737 13.5227 50.4506 13.3239H50.2518V15H48.6325ZM50.2802 9.54545C50.2802 10.3693 50.4009 11.0961 50.6424 11.7259C50.8839 12.3509 51.2366 12.8409 51.7006 13.196C52.1647 13.5464 52.7328 13.7216 53.4052 13.7216C54.1059 13.7216 54.6907 13.5369 55.1594 13.1676C55.6329 12.7936 55.988 12.2917 56.2248 11.6619C56.4663 11.0275 56.587 10.322 56.587 9.54545C56.587 8.77841 56.4686 8.08712 56.2319 7.47159C55.9999 6.85133 55.6471 6.36127 55.1737 6.00142C54.7049 5.63684 54.1154 5.45455 53.4052 5.45455C52.7234 5.45455 52.1504 5.62737 51.6864 5.97301C51.2224 6.31392 50.872 6.79214 50.6353 7.40767C50.3986 8.01847 50.2802 8.73106 50.2802 9.54545Z" fill="black"/>
</svg>
