<svg width="78" height="23" viewBox="0 0 78 23" fill="none" xmlns="http://www.w3.org/2000/svg">
<path d="M2.52667 20.9466L10.9212 3.66409C10.9212 3.66409 3.57596 7.00909 2.00199 10.9116C0.428017 14.8141 0.927102 18.4038 2.00201 20.9466" stroke="#499A18" stroke-linecap="round" stroke-linejoin="round"/>
<path d="M1.99658 20.9925C1.99658 20.9925 27.7104 -8.60087 19.3158 4.2216C10.9213 17.0441 20.1708 6.63145 15.4975 14.0678C10.8241 21.5041 1.99658 20.9925 1.99658 20.9925Z" stroke="#499A18" stroke-linejoin="round"/>
<path d="M26.3485 9.84135C27.7032 9.84135 28.7058 10.0654 29.3565 10.5134C30.0178 10.9507 30.3485 11.7294 30.3485 12.8494C30.3485 13.9694 30.0232 14.86 29.3725 15.5214C28.7218 16.172 27.6712 16.4974 26.2205 16.4974H24.8765L24.8285 19.9694L26.0765 20.0814C26.0765 20.38 25.9858 20.7 25.8045 21.0414H22.2045L22.1565 20.4974C22.6045 20.3267 23.0632 20.1987 23.5325 20.1134C23.4685 15.9534 23.4152 12.86 23.3725 10.8334C23.0845 10.78 22.6152 10.652 21.9645 10.4494L22.0445 9.84135H26.3485ZM26.0605 15.4574C26.9778 15.4467 27.6765 15.2174 28.1565 14.7694C28.6365 14.3107 28.8765 13.708 28.8765 12.9614C28.8765 12.2147 28.6418 11.6974 28.1725 11.4094C27.7032 11.1107 26.9512 10.9614 25.9165 10.9614C25.7245 10.9614 25.3992 10.9667 24.9405 10.9774C24.9405 10.988 24.9245 12.4867 24.8925 15.4734L26.0605 15.4574ZM33.4076 9.15335C33.7383 9.15335 33.973 9.16402 34.1116 9.18535C34.1116 9.55868 34.0423 9.98535 33.9036 10.4654C33.8076 16.7587 33.7596 19.9214 33.7596 19.9534L35.1036 20.0814C35.1036 20.38 35.013 20.7 34.8316 21.0414H31.1516L31.1036 20.4814C31.5943 20.3107 32.0743 20.1827 32.5436 20.0974L32.3836 10.4174C31.797 10.3854 31.3276 10.3214 30.9756 10.2254L31.0396 9.39335C31.5836 9.23335 32.373 9.15335 33.4076 9.15335ZM42.3984 15.8094L42.3184 19.9374C42.777 19.9694 43.2357 20.044 43.6944 20.1614L43.6624 20.7214C43.4917 20.8067 43.1824 20.9027 42.7344 21.0094C42.297 21.1054 41.865 21.1534 41.4384 21.1534C41.2464 20.7694 41.1397 20.4014 41.1184 20.0494C39.9024 20.8494 39.049 21.2494 38.5584 21.2494C37.801 21.2494 37.193 21.0467 36.7344 20.6414C36.2757 20.236 36.0464 19.6707 36.0464 18.9454C36.0464 17.2707 37.0704 16.4067 39.1184 16.3534C40.313 16.3214 40.9157 16.3054 40.9264 16.3054L40.9104 15.7614C40.889 15.0254 40.7504 14.4974 40.4944 14.1774C40.2384 13.8467 39.7797 13.6814 39.1184 13.6814C38.841 13.6814 38.5424 13.7454 38.2224 13.8734L37.8384 15.4734C37.785 15.484 37.6944 15.4894 37.5664 15.4894L36.9104 15.4414C36.7397 14.9827 36.649 14.348 36.6384 13.5374C36.841 13.4307 37.305 13.2707 38.0304 13.0574C38.7557 12.8334 39.2197 12.7214 39.4224 12.7214C40.5104 12.7214 41.2784 12.9614 41.7264 13.4414C42.1744 13.9214 42.3984 14.7107 42.3984 15.8094ZM38.9104 20.1614C39.2197 20.1614 39.9344 19.8147 41.0544 19.1214L40.9744 17.1214C40.249 17.1854 39.641 17.244 39.1504 17.2974C38.6597 17.3507 38.265 17.4947 37.9664 17.7294C37.6677 17.9534 37.5184 18.3107 37.5184 18.8014C37.5184 19.708 37.9824 20.1614 38.9104 20.1614ZM49.5834 12.7214C50.6074 12.7214 51.3487 12.9774 51.8074 13.4894C52.266 13.9907 52.4954 14.7587 52.4954 15.7934C52.4954 16.092 52.4527 17.4787 52.3674 19.9534L53.7114 20.0814C53.7114 20.38 53.6207 20.7 53.4394 21.0414H49.7594L49.7114 20.4814C50.202 20.3107 50.682 20.1827 51.1514 20.0974C51.0874 17.3027 51.0287 15.7507 50.9754 15.4414C50.9327 15.1214 50.858 14.844 50.7514 14.6094C50.6447 14.3747 50.4847 14.2094 50.2714 14.1134C50.058 14.0174 49.7754 13.9694 49.4234 13.9694C48.7194 13.9694 48.0367 14.14 47.3754 14.4814C47.3114 16.9134 47.2687 18.7374 47.2474 19.9534L48.5914 20.0814C48.5914 20.38 48.5007 20.7 48.3194 21.0414H44.6394L44.5914 20.4814C45.082 20.3107 45.562 20.1827 46.0314 20.0974C45.9674 17.388 45.914 15.3827 45.8714 14.0814C45.2847 14.0494 44.8154 13.9854 44.4634 13.8894L44.5274 13.0574C45.1034 12.8974 45.9407 12.8174 47.0394 12.8174C47.1674 13.0094 47.2634 13.2867 47.3274 13.6494C47.786 13.404 48.2447 13.1907 48.7034 13.0094C49.1727 12.8174 49.466 12.7214 49.5834 12.7214ZM55.6348 20.0494L55.5068 14.0174H54.2748L54.2268 13.4574C54.3334 13.3827 54.6428 13.244 55.1548 13.0414L56.4668 10.9934C56.6801 11.0147 56.8454 11.068 56.9628 11.1534L56.9468 12.9134C57.7468 12.9134 58.4028 12.9667 58.9148 13.0734C58.9148 13.3614 58.8241 13.676 58.6428 14.0174H56.9148C56.8934 15.2974 56.8721 17.2387 56.8508 19.8414C57.4481 19.8734 58.0454 19.98 58.6428 20.1614L58.6268 20.7214C58.4774 20.8174 58.0934 20.9294 57.4748 21.0574C56.8668 21.1854 56.3654 21.2494 55.9708 21.2494C55.9174 21.164 55.8481 20.9827 55.7628 20.7054C55.6774 20.4174 55.6348 20.1987 55.6348 20.0494ZM61.3413 20.0174C61.7146 20.1774 62.1679 20.2574 62.7013 20.2574C63.2453 20.2574 63.6719 20.156 63.9813 19.9534C64.2906 19.7507 64.4453 19.4734 64.4453 19.1214C64.4453 18.7694 64.3013 18.476 64.0133 18.2414C63.7253 18.0067 63.3733 17.7987 62.9573 17.6174C62.5413 17.436 62.1253 17.244 61.7093 17.0414C61.2933 16.8387 60.9413 16.572 60.6533 16.2414C60.3653 15.9107 60.2213 15.5267 60.2213 15.0894C60.2213 14.3534 60.4666 13.7774 60.9573 13.3614C61.4479 12.9347 62.1253 12.7214 62.9893 12.7214C63.8639 12.7214 64.6853 12.9187 65.4533 13.3134C65.4639 13.42 65.4693 13.708 65.4693 14.1774C65.4693 14.636 65.4213 15.0307 65.3253 15.3614C65.0693 15.4467 64.7653 15.4894 64.4133 15.4894L63.8853 13.8574C63.6506 13.74 63.3306 13.6814 62.9253 13.6814C62.5306 13.6814 62.2159 13.788 61.9813 14.0014C61.7466 14.204 61.6293 14.4654 61.6293 14.7854C61.6293 15.0947 61.7733 15.3667 62.0613 15.6014C62.3599 15.836 62.7173 16.0494 63.1333 16.2414C63.5493 16.4227 63.9653 16.62 64.3813 16.8334C64.7973 17.036 65.1493 17.308 65.4373 17.6494C65.7359 17.98 65.8853 18.364 65.8853 18.8014C65.8853 19.5694 65.5866 20.172 64.9893 20.6094C64.4026 21.036 63.6773 21.2494 62.8133 21.2494C62.3439 21.2494 61.8426 21.1747 61.3093 21.0254C60.7759 20.8654 60.3279 20.6627 59.9653 20.4174C59.9653 19.7027 60.0293 19.068 60.1573 18.5134C60.4026 18.4707 60.7333 18.4494 61.1493 18.4494L61.3413 20.0174Z" fill="black"/>
</svg>
