<svg width="45" height="13" viewBox="0 0 45 13" fill="none" xmlns="http://www.w3.org/2000/svg">
<path d="M5.34851 0.841351C6.70317 0.841351 7.70584 1.06535 8.35651 1.51335C9.01784 1.95068 9.34851 2.72935 9.34851 3.84935C9.34851 4.96935 9.02317 5.86002 8.37251 6.52135C7.72184 7.17202 6.67117 7.49735 5.22051 7.49735H3.87651L3.82851 10.9694L5.07651 11.0814C5.07651 11.38 4.98584 11.7 4.80451 12.0414H1.20451L1.15651 11.4974C1.60451 11.3267 2.06317 11.1987 2.53251 11.1134C2.46851 6.95335 2.41517 3.86002 2.37251 1.83335C2.08451 1.78002 1.61517 1.65202 0.964506 1.44935L1.04451 0.841351H5.34851ZM5.06051 6.45735C5.97784 6.44668 6.67651 6.21735 7.15651 5.76935C7.63651 5.31068 7.87651 4.70802 7.87651 3.96135C7.87651 3.21468 7.64184 2.69735 7.17251 2.40935C6.70317 2.11068 5.95117 1.96135 4.91651 1.96135C4.72451 1.96135 4.39917 1.96668 3.94051 1.97735C3.94051 1.98802 3.92451 3.48668 3.89251 6.47335L5.06051 6.45735ZM12.4076 0.153351C12.7383 0.153351 12.973 0.164017 13.1116 0.18535C13.1116 0.558684 13.0423 0.985351 12.9036 1.46535C12.8076 7.75868 12.7596 10.9214 12.7596 10.9534L14.1036 11.0814C14.1036 11.38 14.013 11.7 13.8316 12.0414H10.1516L10.1036 11.4814C10.5943 11.3107 11.0743 11.1827 11.5436 11.0974L11.3836 1.41735C10.797 1.38535 10.3276 1.32135 9.97563 1.22535L10.0396 0.393351C10.5836 0.233351 11.373 0.153351 12.4076 0.153351ZM21.3984 6.80935L21.3184 10.9374C21.777 10.9694 22.2357 11.044 22.6944 11.1614L22.6624 11.7214C22.4917 11.8067 22.1824 11.9027 21.7344 12.0094C21.297 12.1054 20.865 12.1534 20.4384 12.1534C20.2464 11.7694 20.1397 11.4014 20.1184 11.0494C18.9024 11.8494 18.049 12.2494 17.5584 12.2494C16.801 12.2494 16.193 12.0467 15.7344 11.6414C15.2757 11.236 15.0464 10.6707 15.0464 9.94535C15.0464 8.27068 16.0704 7.40668 18.1184 7.35335C19.313 7.32135 19.9157 7.30535 19.9264 7.30535L19.9104 6.76135C19.889 6.02535 19.7504 5.49735 19.4944 5.17735C19.2384 4.84668 18.7797 4.68135 18.1184 4.68135C17.841 4.68135 17.5424 4.74535 17.2224 4.87335L16.8384 6.47335C16.785 6.48402 16.6944 6.48935 16.5664 6.48935L15.9104 6.44135C15.7397 5.98268 15.649 5.34802 15.6384 4.53735C15.841 4.43068 16.305 4.27068 17.0304 4.05735C17.7557 3.83335 18.2197 3.72135 18.4224 3.72135C19.5104 3.72135 20.2784 3.96135 20.7264 4.44135C21.1744 4.92135 21.3984 5.71068 21.3984 6.80935ZM17.9104 11.1614C18.2197 11.1614 18.9344 10.8147 20.0544 10.1214L19.9744 8.12135C19.249 8.18535 18.641 8.24402 18.1504 8.29735C17.6597 8.35068 17.265 8.49468 16.9664 8.72935C16.6677 8.95335 16.5184 9.31068 16.5184 9.80135C16.5184 10.708 16.9824 11.1614 17.9104 11.1614ZM28.5834 3.72135C29.6074 3.72135 30.3487 3.97735 30.8074 4.48935C31.266 4.99068 31.4954 5.75868 31.4954 6.79335C31.4954 7.09202 31.4527 8.47868 31.3674 10.9534L32.7114 11.0814C32.7114 11.38 32.6207 11.7 32.4394 12.0414H28.7594L28.7114 11.4814C29.202 11.3107 29.682 11.1827 30.1514 11.0974C30.0874 8.30268 30.0287 6.75068 29.9754 6.44135C29.9327 6.12135 29.858 5.84402 29.7514 5.60935C29.6447 5.37468 29.4847 5.20935 29.2714 5.11335C29.058 5.01735 28.7754 4.96935 28.4234 4.96935C27.7194 4.96935 27.0367 5.14002 26.3754 5.48135C26.3114 7.91335 26.2687 9.73735 26.2474 10.9534L27.5914 11.0814C27.5914 11.38 27.5007 11.7 27.3194 12.0414H23.6394L23.5914 11.4814C24.082 11.3107 24.562 11.1827 25.0314 11.0974C24.9674 8.38802 24.914 6.38268 24.8714 5.08135C24.2847 5.04935 23.8154 4.98535 23.4634 4.88935L23.5274 4.05735C24.1034 3.89735 24.9407 3.81735 26.0394 3.81735C26.1674 4.00935 26.2634 4.28668 26.3274 4.64935C26.786 4.40402 27.2447 4.19068 27.7034 4.00935C28.1727 3.81735 28.466 3.72135 28.5834 3.72135ZM34.6348 11.0494L34.5068 5.01735H33.2748L33.2268 4.45735C33.3334 4.38268 33.6428 4.24402 34.1548 4.04135L35.4668 1.99335C35.6801 2.01468 35.8454 2.06802 35.9628 2.15335L35.9468 3.91335C36.7468 3.91335 37.4028 3.96668 37.9148 4.07335C37.9148 4.36135 37.8241 4.67602 37.6428 5.01735H35.9148C35.8934 6.29735 35.8721 8.23868 35.8508 10.8414C36.4481 10.8734 37.0454 10.98 37.6428 11.1614L37.6268 11.7214C37.4774 11.8174 37.0934 11.9294 36.4748 12.0574C35.8668 12.1854 35.3654 12.2494 34.9708 12.2494C34.9174 12.164 34.8481 11.9827 34.7628 11.7054C34.6774 11.4174 34.6348 11.1987 34.6348 11.0494ZM40.3413 11.0174C40.7146 11.1774 41.1679 11.2574 41.7013 11.2574C42.2453 11.2574 42.6719 11.156 42.9813 10.9534C43.2906 10.7507 43.4453 10.4734 43.4453 10.1214C43.4453 9.76935 43.3013 9.47602 43.0133 9.24135C42.7253 9.00668 42.3733 8.79868 41.9573 8.61735C41.5413 8.43602 41.1253 8.24402 40.7093 8.04135C40.2933 7.83868 39.9413 7.57202 39.6533 7.24135C39.3653 6.91068 39.2213 6.52668 39.2213 6.08935C39.2213 5.35335 39.4666 4.77735 39.9573 4.36135C40.4479 3.93468 41.1253 3.72135 41.9893 3.72135C42.8639 3.72135 43.6853 3.91868 44.4533 4.31335C44.4639 4.42002 44.4693 4.70802 44.4693 5.17735C44.4693 5.63602 44.4213 6.03068 44.3253 6.36135C44.0693 6.44668 43.7653 6.48935 43.4133 6.48935L42.8853 4.85735C42.6506 4.74002 42.3306 4.68135 41.9253 4.68135C41.5306 4.68135 41.2159 4.78802 40.9813 5.00135C40.7466 5.20402 40.6293 5.46535 40.6293 5.78535C40.6293 6.09468 40.7733 6.36668 41.0613 6.60135C41.3599 6.83602 41.7173 7.04935 42.1333 7.24135C42.5493 7.42268 42.9653 7.62002 43.3813 7.83335C43.7973 8.03602 44.1493 8.30802 44.4373 8.64935C44.7359 8.98002 44.8853 9.36402 44.8853 9.80135C44.8853 10.5694 44.5866 11.172 43.9893 11.6094C43.4026 12.036 42.6773 12.2494 41.8133 12.2494C41.3439 12.2494 40.8426 12.1747 40.3093 12.0254C39.7759 11.8654 39.3279 11.6627 38.9653 11.4174C38.9653 10.7027 39.0293 10.068 39.1573 9.51335C39.4026 9.47068 39.7333 9.44935 40.1493 9.44935L40.3413 11.0174Z" fill="black"/>
</svg>
